<svg width="191" height="51" viewBox="0 0 191 51" fill="none" xmlns="http://www.w3.org/2000/svg">
<path d="M12.31 40.76H27.99V50H0.34V0.859998H12.31V40.76ZM56.9394 50.49C52.3194 50.49 48.0727 49.4167 44.1994 47.27C40.3727 45.1233 37.316 42.1367 35.0294 38.31C32.7894 34.4367 31.6694 30.0967 31.6694 25.29C31.6694 20.4833 32.7894 16.1667 35.0294 12.34C37.316 8.51333 40.3727 5.52667 44.1994 3.38C48.0727 1.23333 52.3194 0.159999 56.9394 0.159999C61.5594 0.159999 65.7827 1.23333 69.6094 3.38C73.4827 5.52667 76.516 8.51333 78.7094 12.34C80.9494 16.1667 82.0694 20.4833 82.0694 25.29C82.0694 30.0967 80.9494 34.4367 78.7094 38.31C76.4694 42.1367 73.436 45.1233 69.6094 47.27C65.7827 49.4167 61.5594 50.49 56.9394 50.49ZM56.9394 39.57C60.8594 39.57 63.986 38.2633 66.3194 35.65C68.6994 33.0367 69.8894 29.5833 69.8894 25.29C69.8894 20.95 68.6994 17.4967 66.3194 14.93C63.986 12.3167 60.8594 11.01 56.9394 11.01C52.9727 11.01 49.7994 12.2933 47.4194 14.86C45.086 17.4267 43.9194 20.9033 43.9194 25.29C43.9194 29.63 45.086 33.1067 47.4194 35.72C49.7994 38.2867 52.9727 39.57 56.9394 39.57ZM121.349 16.4C120.462 14.7667 119.179 13.53 117.499 12.69C115.865 11.8033 113.929 11.36 111.689 11.36C107.815 11.36 104.712 12.6433 102.379 15.21C100.045 17.73 98.8787 21.1133 98.8787 25.36C98.8787 29.8867 100.092 33.4333 102.519 36C104.992 38.52 108.375 39.78 112.669 39.78C115.609 39.78 118.082 39.0333 120.089 37.54C122.142 36.0467 123.635 33.9 124.569 31.1H109.379V22.28H135.419V33.41C134.532 36.3967 133.015 39.1733 130.869 41.74C128.769 44.3067 126.085 46.3833 122.819 47.97C119.552 49.5567 115.865 50.35 111.759 50.35C106.905 50.35 102.565 49.3 98.7387 47.2C94.9587 45.0533 91.9953 42.09 89.8487 38.31C87.7487 34.53 86.6987 30.2133 86.6987 25.36C86.6987 20.5067 87.7487 16.19 89.8487 12.41C91.9953 8.58333 94.9587 5.62 98.7387 3.52C102.519 1.37333 106.835 0.299997 111.689 0.299997C117.569 0.299997 122.515 1.72333 126.529 4.57C130.589 7.41667 133.272 11.36 134.579 16.4H121.349ZM165.289 50.49C160.669 50.49 156.422 49.4167 152.549 47.27C148.722 45.1233 145.666 42.1367 143.379 38.31C141.139 34.4367 140.019 30.0967 140.019 25.29C140.019 20.4833 141.139 16.1667 143.379 12.34C145.666 8.51333 148.722 5.52667 152.549 3.38C156.422 1.23333 160.669 0.159999 165.289 0.159999C169.909 0.159999 174.132 1.23333 177.959 3.38C181.832 5.52667 184.866 8.51333 187.059 12.34C189.299 16.1667 190.419 20.4833 190.419 25.29C190.419 30.0967 189.299 34.4367 187.059 38.31C184.819 42.1367 181.786 45.1233 177.959 47.27C174.132 49.4167 169.909 50.49 165.289 50.49ZM165.289 39.57C169.209 39.57 172.336 38.2633 174.669 35.65C177.049 33.0367 178.239 29.5833 178.239 25.29C178.239 20.95 177.049 17.4967 174.669 14.93C172.336 12.3167 169.209 11.01 165.289 11.01C161.322 11.01 158.149 12.2933 155.769 14.86C153.436 17.4267 152.269 20.9033 152.269 25.29C152.269 29.63 153.436 33.1067 155.769 35.72C158.149 38.2867 161.322 39.57 165.289 39.57Z" fill="#5A5A5A"/>
</svg>
