<?xml version="1.0" encoding="UTF-8"?>
<!DOCTYPE svg PUBLIC "-//W3C//DTD SVG 1.1//EN" "http://www.w3.org/Graphics/SVG/1.1/DTD/svg11.dtd">
<!-- Creator: CorelDRAW -->
<svg xmlns="http://www.w3.org/2000/svg" xml:space="preserve" width="2.66666in" height="2.66666in" version="1.1" style="shape-rendering:geometricPrecision; text-rendering:geometricPrecision; image-rendering:optimizeQuality; fill-rule:evenodd; clip-rule:evenodd"
viewBox="0 0 2667 2667"
 xmlns:xlink="http://www.w3.org/1999/xlink">
 <defs>
  <style type="text/css">
    .fil1 {fill:white}
    .fil0 {fill:url(#id0)}
    .fil2 {fill:url(#id1)}
  </style>
  <linearGradient id="id0" gradientUnits="userSpaceOnUse" x1="-0" y1="1333.33" x2="2666.66" y2="1333.33">
   <stop offset="0" style="stop-opacity:1; stop-color:#033B4B"/>
   <stop offset="1" style="stop-opacity:1; stop-color:#108A99"/>
  </linearGradient>
  <linearGradient id="id1" gradientUnits="userSpaceOnUse" xlink:href="#id0" x1="590.677" y1="1333.45" x2="2076.04" y2="1333.45">
  </linearGradient>
 </defs>
 <g id="_632431280">
  <rect class="fil0" width="2667" height="2667" rx="592" ry="592"/>
  <rect class="fil1" x="215" y="215" width="2237" height="2237" rx="497" ry="497"/>
 </g>
 <g id="Layer_x0020_1">
  <metadata id="CorelCorpID_0Corel-Layer"/>
  <path class="fil2" d="M1221 1295c-5,0 -9,-1 -14,-4l-346 -200c-30,-17 -4,-63 26,-46l347 200c24,14 13,50 -13,50zm224 -128c-20,0 -34,-22 -24,-40l108 -186c17,-30 63,-3 46,27l-107 186c-5,8 -14,13 -23,13zm326 193l-215 0c-34,0 -34,-53 0,-53l215 0c34,0 34,53 0,53zm-219 379c-9,0 -18,-5 -23,-13l-108 -186c-17,-30 29,-57 47,-27l107 186c10,18 -3,40 -23,40zm-438 0c-19,0 -33,-22 -23,-40l108 -186c17,-30 63,-3 46,27l-107 186c-5,8 -14,13 -24,13zm-4 -379l-214 0c-35,0 -35,-53 0,-53l214 0c35,0 35,53 0,53zm112 -193c-9,0 -18,-5 -23,-13l-108 -186c-17,-30 29,-57 47,-27l107 186c10,18 -3,40 -23,40zm111 244c-58,0 -97,-65 -67,-117 21,-36 70,-49 106,-28 69,40 39,145 -39,145zm0 -102c-24,0 -33,33 -12,46 27,15 52,-27 24,-43 -3,-2 -7,-3 -12,-3zm0 -568c-9,0 -18,-5 -23,-14l-30 -53 -62 -41c-15,-11 -15,-34 0,-45l62 -41 30 -53c10,-18 37,-18 47,0l29 53 62 41c16,11 16,34 0,45l-62 41 -29 53c-5,9 -14,14 -24,14zm-52 -130c33,22 34,16 52,49 18,-33 19,-27 52,-49 -33,-23 -34,-17 -52,-50 -18,33 -19,27 -52,50zm728 474c-16,0 -65,-32 -79,-35l-61 1c-20,0 -33,-23 -23,-41l32 -52 4 -75c2,-18 22,-30 39,-22l67 33 61 -1c20,0 33,23 23,41l-31 52 -5 74c-1,14 -13,25 -27,25zm-72 -89c13,0 36,15 48,21 3,-40 -2,-38 17,-70 -37,1 -34,-3 -69,-20 -3,39 3,38 -16,69l20 0zm-28 812c-14,0 -26,-11 -27,-25l-4 -74 -32 -53c-10,-17 3,-40 24,-40l60 1 67 -33c17,-8 38,3 39,22l5 75c4,14 35,49 35,66 0,43 -67,21 -88,25 -14,4 -62,36 -79,36zm8 -138c18,31 14,31 16,70 35,-17 32,-21 69,-21 -19,-31 -14,-30 -17,-69 -35,17 -32,21 -68,20zm-584 517c-9,0 -18,-6 -23,-14l-30 -53 -62 -42c-15,-10 -15,-34 0,-44l62 -42 30 -53c10,-18 37,-18 46,0l30 53 62 42c16,10 16,34 0,44l-62 42 -30 53c-4,8 -13,14 -23,14zm-52 -131c33,22 34,17 52,49 18,-32 19,-27 52,-49 -33,-22 -34,-17 -52,-49 -18,32 -19,27 -52,49zm-524 -248c-16,0 -64,-32 -78,-36l-61 1c-21,0 -34,-22 -24,-40l32 -52 4 -75c2,-19 22,-30 39,-22l67 33 61 -1c20,0 34,23 23,40l-31 53 -5 74c-1,14 -13,25 -27,25zm-72 -89c13,0 36,15 48,21 3,-40 -2,-38 17,-70 -37,1 -34,-3 -69,-21 -2,40 3,39 -16,70l20 0zm-28 -634c-14,0 -26,-11 -27,-25l-4 -74 -32 -52c-10,-18 3,-41 24,-41l61 1 67 -33c16,-8 37,4 38,22l5 75 31 52c11,18 -3,41 -23,41l-61 -1c-14,3 -62,35 -79,35zm8 -138c19,32 14,30 16,70 35,-17 32,-21 69,-21 -19,-31 -14,-30 -17,-69 -35,17 -32,21 -68,20zm668 283c-15,0 -26,-12 -26,-27l0 -400c0,-34 53,-34 53,0l0 400c0,15 -12,27 -27,27zm113 65c-26,0 -37,-36 -14,-50l347 -200c30,-17 57,29 27,46l-347 200c-4,3 -9,4 -13,4zm346 330c-4,0 -9,-1 -13,-3l-347 -201c-29,-17 -3,-63 27,-46l347 200c23,14 12,50 -14,50zm-459 265c-15,0 -26,-12 -26,-26l0 -401c0,-34 53,-34 53,0l0 401c0,14 -12,26 -27,26zm-459 -265c-26,0 -37,-36 -13,-50l346 -200c30,-17 57,29 27,46l-347 201c-4,2 -9,3 -13,3z"/>
 </g>
</svg>
